<svg width="76" height="50" viewBox="0 0 76 50" fill="none" xmlns="http://www.w3.org/2000/svg">
<path d="M60.1599 45H55.1599V50H60.1599V45Z" fill="#00E6A0"/>
<path d="M20.1599 45H15.1599V50H20.1599V45Z" fill="#00E6A0"/>
<path d="M65.1599 40H60.1599V45H65.1599V40Z" fill="#FFF000"/>
<path d="M15.1599 40H10.1599V45H15.1599V40Z" fill="#FFF000"/>
<path d="M65.1599 35H60.1599V40H65.1599V35Z" fill="#FFF000"/>
<path d="M60.1599 35H55.1599V40H60.1599V35Z" fill="#00E6A0"/>
<path d="M55.1599 35H50.1599V40H55.1599V35Z" fill="#00E6A0"/>
<path d="M50.1599 35H45.1599V40H50.1599V35Z" fill="#00E6A0"/>
<path d="M45.1599 35H40.1599V40H45.1599V35Z" fill="#00E6A0"/>
<path d="M40.1599 35H35.1599V40H40.1599V35Z" fill="#00E6A0"/>
<path d="M35.1599 35H30.1599V40H35.1599V35Z" fill="#00E6A0"/>
<path d="M30.1599 35H25.1599V40H30.1599V35Z" fill="#00E6A0"/>
<path d="M25.1599 35H20.1599V40H25.1599V35Z" fill="#00E6A0"/>
<path d="M20.1599 35H15.1599V40H20.1599V35Z" fill="#00E6A0"/>
<path d="M15.1599 35H10.1599V40H15.1599V35Z" fill="#FFF000"/>
<path d="M65.1599 30H60.1599V35H65.1599V30Z" fill="#FFF000"/>
<path d="M60.1599 30H55.1599V35H60.1599V30Z" fill="#00E6A0"/>
<path d="M55.1599 30H50.1599V35H55.1599V30Z" fill="#00E6A0"/>
<path d="M25.1599 30H20.1599V35H25.1599V30Z" fill="#00E6A0"/>
<path d="M20.1599 30H15.1599V35H20.1599V30Z" fill="#00E6A0"/>
<path d="M15.1599 30H10.1599V35H15.1599V30Z" fill="#FFF000"/>
<path d="M75.1599 25H70.1599V30H75.1599V25Z" fill="#FFF000"/>
<path d="M70.1599 25H65.1599V30H70.1599V25Z" fill="#FFF000"/>
<path d="M65.1599 25H60.1599V30H65.1599V25Z" fill="#FFF000"/>
<path d="M60.1599 25H55.1599V30H60.1599V25Z" fill="#0096FF"/>
<path d="M55.1599 25H50.1599V30H55.1599V25Z" fill="#0096FF"/>
<path d="M45.1599 25H40.1599V30H45.1599V25Z" fill="#FFF000"/>
<path d="M40.1599 25H35.1599V30H40.1599V25Z" fill="#FFF000"/>
<path d="M35.1599 25H30.1599V30H35.1599V25Z" fill="#FFF000"/>
<path d="M25.1599 25H20.1599V30H25.1599V25Z" fill="#0096FF"/>
<path d="M20.1599 25H15.1599V30H20.1599V25Z" fill="#0096FF"/>
<path d="M15.1599 25H10.1599V30H15.1599V25Z" fill="#FFF000"/>
<path d="M10.1599 25H5.15991V30H10.1599V25Z" fill="#FFF000"/>
<path d="M5.15991 25H0.159912V30H5.15991V25Z" fill="#FFF000"/>
<path d="M70.1599 20H65.1599V25H70.1599V20Z" fill="#FFF000"/>
<path d="M65.1599 20H60.1599V25H65.1599V20Z" fill="#FFF000"/>
<path d="M60.1599 20H55.1599V25H60.1599V20Z" fill="#0096FF"/>
<path d="M55.1599 20H50.1599V25H55.1599V20Z" fill="#FFF000"/>
<path d="M50.1599 20H45.1599V25H50.1599V20Z" fill="#FFF000"/>
<path d="M45.1599 20H40.1599V25H45.1599V20Z" fill="#FFF000"/>
<path d="M40.1599 20H35.1599V25H40.1599V20Z" fill="#FFF000"/>
<path d="M35.1599 20H30.1599V25H35.1599V20Z" fill="#FFF000"/>
<path d="M30.1599 20H25.1599V25H30.1599V20Z" fill="#FFF000"/>
<path d="M25.1599 20H20.1599V25H25.1599V20Z" fill="#FFF000"/>
<path d="M20.1599 20H15.1599V25H20.1599V20Z" fill="#0096FF"/>
<path d="M15.1599 20H10.1599V25H15.1599V20Z" fill="#FFF000"/>
<path d="M10.1599 20H5.15991V25H10.1599V20Z" fill="#FFF000"/>
<path d="M65.1599 15H60.1599V20H65.1599V15Z" fill="#FFF000"/>
<path d="M60.1599 15H55.1599V20H60.1599V15Z" fill="#0096FF"/>
<path d="M55.1599 15H50.1599V20H55.1599V15Z" fill="#FFF000"/>
<path d="M45.1599 15H40.1599V20H45.1599V15Z" fill="#FFF000"/>
<path d="M40.1599 15H35.1599V20H40.1599V15Z" fill="#FFF000"/>
<path d="M35.1599 15H30.1599V20H35.1599V15Z" fill="#FFF000"/>
<path d="M25.1599 15H20.1599V20H25.1599V15Z" fill="#FFF000"/>
<path d="M20.1599 15H15.1599V20H20.1599V15Z" fill="#0096FF"/>
<path d="M15.1599 15H10.1599V20H15.1599V15Z" fill="#FFF000"/>
<path d="M60.1599 10H55.1599V15H60.1599V10Z" fill="#0096FF"/>
<path d="M55.1599 10H50.1599V15H55.1599V10Z" fill="#0096FF"/>
<path d="M50.1599 10H45.1599V15H50.1599V10Z" fill="#0096FF"/>
<path d="M45.1599 10H40.1599V15H45.1599V10Z" fill="#FFF000"/>
<path d="M40.1599 10H35.1599V15H40.1599V10Z" fill="#FFF000"/>
<path d="M35.1599 10H30.1599V15H35.1599V10Z" fill="#FFF000"/>
<path d="M30.1599 10H25.1599V15H30.1599V10Z" fill="#0096FF"/>
<path d="M25.1599 10H20.1599V15H25.1599V10Z" fill="#0096FF"/>
<path d="M20.1599 10H15.1599V15H20.1599V10Z" fill="#0096FF"/>
<path d="M60.1599 5H55.1599V10H60.1599V5Z" fill="#00E6A0"/>
<path d="M55.1599 5H50.1599V10H55.1599V5Z" fill="#00E6A0"/>
<path d="M25.1599 5H20.1599V10H25.1599V5Z" fill="#00E6A0"/>
<path d="M20.1599 5H15.1599V10H20.1599V5Z" fill="#00E6A0"/>
<path d="M60.1599 0H55.1599V5H60.1599V0Z" fill="#00E6A0"/>
<path d="M50.1599 0H45.1599V5H50.1599V0Z" fill="#00E6A0"/>
<path d="M30.1599 0H25.1599V5H30.1599V0Z" fill="#00E6A0"/>
<path d="M20.1599 0H15.1599V5H20.1599V0Z" fill="#00E6A0"/>
</svg>
