<svg width="51" height="46" viewBox="0 0 51 46" fill="none" xmlns="http://www.w3.org/2000/svg">
<path d="M50.6599 40.99H45.6599V45.99H50.6599V40.99Z" fill="#FF1455"/>
<path d="M35.6599 40.99H30.6599V45.99H35.6599V40.99Z" fill="#FF1455"/>
<path d="M20.6599 40.99H15.6599V45.99H20.6599V40.99Z" fill="#FF1455"/>
<path d="M5.65991 40.99H0.659912V45.99H5.65991V40.99Z" fill="#FF1455"/>
<path d="M50.6599 35.99H45.6599V40.99H50.6599V35.99Z" fill="#FF1455"/>
<path d="M35.6599 35.99H30.6599V40.99H35.6599V35.99Z" fill="#FF1455"/>
<path d="M20.6599 35.99H15.6599V40.99H20.6599V35.99Z" fill="#FF1455"/>
<path d="M5.65991 35.99H0.659912V40.99H5.65991V35.99Z" fill="#FF1455"/>
<path d="M45.6599 30.99H40.6599V35.99H45.6599V30.99Z" fill="#FF1455"/>
<path d="M40.6599 30.99H35.6599V35.99H40.6599V30.99Z" fill="#FF1455"/>
<path d="M35.6599 30.99H30.6599V35.99H35.6599V30.99Z" fill="#FF1455"/>
<path d="M30.6599 30.99H25.6599V35.99H30.6599V30.99Z" fill="#FF1455"/>
<path d="M25.6599 30.99H20.6599V35.99H25.6599V30.99Z" fill="#FF1455"/>
<path d="M20.6599 30.99H15.6599V35.99H20.6599V30.99Z" fill="#FF1455"/>
<path d="M15.6599 30.99H10.6599V35.99H15.6599V30.99Z" fill="#FF1455"/>
<path d="M10.6599 30.99H5.65991V35.99H10.6599V30.99Z" fill="#FF1455"/>
<path d="M45.6599 25.99H40.6599V30.99H45.6599V25.99Z" fill="#00E6A0"/>
<path d="M10.6599 25.99H5.65991V30.99H10.6599V25.99Z" fill="#00E6A0"/>
<path d="M45.6599 20.99H40.6599V25.99H45.6599V20.99Z" fill="#00E6A0"/>
<path d="M40.6599 20.99H35.6599V25.99H40.6599V20.99Z" fill="#00E6A0"/>
<path d="M35.6599 20.99H30.6599V25.99H35.6599V20.99Z" fill="#00E6A0"/>
<path d="M30.6599 20.99H25.6599V25.99H30.6599V20.99Z" fill="#00E6A0"/>
<path d="M25.6599 20.99H20.6599V25.99H25.6599V20.99Z" fill="#00E6A0"/>
<path d="M20.6599 20.99H15.6599V25.99H20.6599V20.99Z" fill="#00E6A0"/>
<path d="M15.6599 20.99H10.6599V25.99H15.6599V20.99Z" fill="#00E6A0"/>
<path d="M10.6599 20.99H5.65991V25.99H10.6599V20.99Z" fill="#00E6A0"/>
<path d="M45.6599 15.99H40.6599V20.99H45.6599V15.99Z" fill="#00E6A0"/>
<path d="M40.6599 15.99H35.6599V20.99H40.6599V15.99Z" fill="#00E6A0"/>
<path d="M30.6599 15.99H25.6599V20.99H30.6599V15.99Z" fill="#FFF000"/>
<path d="M25.6599 15.99H20.6599V20.99H25.6599V15.99Z" fill="#FFF000"/>
<path d="M15.6599 15.99H10.6599V20.99H15.6599V15.99Z" fill="#00E6A0"/>
<path d="M10.6599 15.99H5.65991V20.99H10.6599V15.99Z" fill="#00E6A0"/>
<path d="M40.6599 10.99H35.6599V15.99H40.6599V10.99Z" fill="#00E6A0"/>
<path d="M35.6599 10.99H30.6599V15.99H35.6599V10.99Z" fill="#FFF000"/>
<path d="M30.6599 10.99H25.6599V15.99H30.6599V10.99Z" fill="#FFF000"/>
<path d="M25.6599 10.99H20.6599V15.99H25.6599V10.99Z" fill="#FFF000"/>
<path d="M20.6599 10.99H15.6599V15.99H20.6599V10.99Z" fill="#FFF000"/>
<path d="M15.6599 10.99H10.6599V15.99H15.6599V10.99Z" fill="#00E6A0"/>
<path d="M35.6599 5.98999H30.6599V10.99H35.6599V5.98999Z" fill="#FFF000"/>
<path d="M30.6599 5.98999H25.6599V10.99H30.6599V5.98999Z" fill="#FFF000"/>
<path d="M25.6599 5.98999H20.6599V10.99H25.6599V5.98999Z" fill="#FFF000"/>
<path d="M20.6599 5.98999H15.6599V10.99H20.6599V5.98999Z" fill="#FFF000"/>
<path d="M30.6599 0.98999H25.6599V5.98999H30.6599V0.98999Z" fill="#FFF000"/>
<path d="M25.6599 0.98999H20.6599V5.98999H25.6599V0.98999Z" fill="#FFF000"/>
</svg>
