<svg width="21" height="20" viewBox="0 0 21 20" fill="none" xmlns="http://www.w3.org/2000/svg">
<path d="M9.17525 1.33502H7.74515V2.67002H9.17525V1.33502Z" fill="currentColor"/>
<path d="M7.74516 2.66498H6.31506V3.99998H7.74516V2.66498Z" fill="currentColor"/>
<path d="M6.31505 4H4.88495V5.335H6.31505V4Z" fill="currentColor"/>
<path d="M4.88496 12V10.665V9.33002V8.00002V6.66502V5.33002H3.46021H2.03011H0.600006V6.66502V8.00002V9.33502V10.67V12V13.335V14.67H2.03011H3.46021H4.89031V13.335V12H4.88496ZM3.46021 8.00002V9.33502V10.67V12V13.335H2.03011V12V10.665V9.33002V8.00002V6.66502H3.46021V8.00002Z" fill="currentColor"/>
<path d="M14.885 6.66498H13.4549V7.99998H14.885V6.66498Z" fill="currentColor"/>
<path d="M20.6 6.66498H19.1699V7.99998H20.6V6.66498Z" fill="currentColor"/>
<path d="M16.3151 8H14.8849V9.335H16.3151V8Z" fill="currentColor"/>
<path d="M19.1699 8H17.7398V9.335H19.1699V8Z" fill="currentColor"/>
<path d="M6.31505 14.665H4.88495V16H6.31505V14.665Z" fill="currentColor"/>
<path d="M17.7452 9.33502H16.3151V10.67H17.7452V9.33502Z" fill="currentColor"/>
<path d="M7.74516 16H6.31506V17.335H7.74516V16Z" fill="currentColor"/>
<path d="M16.3151 10.665H14.8849V12H16.3151V10.665Z" fill="currentColor"/>
<path d="M19.1699 10.665H17.7398V12H19.1699V10.665Z" fill="currentColor"/>
<path d="M9.17525 17.335H7.74515V18.67H9.17525V17.335Z" fill="currentColor"/>
<path d="M14.885 12H13.4549V13.335H14.885V12Z" fill="currentColor"/>
<path d="M20.6 12H19.1699V13.335H20.6V12Z" fill="currentColor"/>
<path d="M9.16989 0V1.335H10.6V2.665V4V5.335V6.665V8V9.335V10.665V12V13.335V14.665V16V17.335V18.665H9.16989V20H10.6H12.0301V18.665V17.335V16V14.665V13.335V12V10.665V9.335V8V6.665V5.335V4V2.665V1.335V0H10.6H9.16989Z" fill="currentColor"/>
</svg>
