<svg width="21" height="20" viewBox="0 0 21 20" fill="none" xmlns="http://www.w3.org/2000/svg">
<path d="M9.17525 1.33502H7.74515V2.67002H9.17525V1.33502Z" fill="currentColor"/>
<path d="M9.16989 0V1.335H10.6V2.665V4V5.335V6.665V8V9.335V10.665V12V13.335V14.665V16V17.335V18.665H9.16989V20H10.6H12.0301V18.665V17.335V16V14.665V13.335V12V10.665V9.335V8V6.665V5.335V4V2.665V1.335V0H10.6H9.16989Z" fill="currentColor"/>
<path d="M19.1699 1.33502V2.66502V4.00002V5.33502V6.66502V8.00002V9.33502V10.665V12V13.335V14.665V16V17.335V18.665H20.6V17.335V16V14.665V13.335V12V10.665V9.33502V8.00002V6.66502V5.33502V4.00002V2.66502V1.33502H19.1699Z" fill="currentColor"/>
<path d="M7.74516 2.66498H6.31506V3.99998H7.74516V2.66498Z" fill="currentColor"/>
<path d="M6.31505 4H4.88495V5.335H6.31505V4Z" fill="currentColor"/>
<path d="M16.3151 5.335V6.665V8V9.335V10.665V12V13.335V14.665V16H17.7398V14.665V13.335V12V10.665V9.335V8V6.665V5.335V4H16.3151V5.335Z" fill="currentColor"/>
<path d="M13.4549 7.99998V9.33498V10.665V12V13.335H14.885V12V10.665V9.33498V7.99998V6.66498H13.4549V7.99998Z" fill="currentColor"/>
<path d="M4.88496 12V10.665V9.33002V8.00002V6.66502V5.33002H3.46021H2.03011H0.600006V6.66502V8.00002V9.33502V10.67V12V13.335V14.67H2.03011H3.46021H4.89031V13.335V12H4.88496ZM3.46021 8.00002V9.33502V10.67V12V13.335H2.03011V12V10.665V9.33002V8.00002V6.66502H3.46021V8.00002Z" fill="currentColor"/>
<path d="M6.31505 14.665H4.88495V16H6.31505V14.665Z" fill="currentColor"/>
<path d="M7.74516 16H6.31506V17.335H7.74516V16Z" fill="currentColor"/>
<path d="M9.17525 17.335H7.74515V18.67H9.17525V17.335Z" fill="currentColor"/>
</svg>
