<svg xmlns="http://www.w3.org/2000/svg" version="1.1" width="26px" height="31px" style="shape-rendering:geometricPrecision; text-rendering:geometricPrecision; image-rendering:optimizeQuality; fill-rule:evenodd; clip-rule:evenodd" xmlns:xlink="http://www.w3.org/1999/xlink">
<g><path style="opacity:0.965" fill="#c65ed8" d="M 6.5,-0.5 C 12.8333,-0.5 19.1667,-0.5 25.5,-0.5C 25.5,0.5 25.5,1.5 25.5,2.5C 19.1667,2.5 12.8333,2.5 6.5,2.5C 6.5,1.5 6.5,0.5 6.5,-0.5 Z"/></g>
<g><path style="opacity:0.558" fill="#b961d7" d="M 6.5,2.5 C 12.8333,2.5 19.1667,2.5 25.5,2.5C 25.5,3.16667 25.5,3.83333 25.5,4.5C 20.3054,4.17949 15.3054,4.51283 10.5,5.5C 7.83333,5.5 5.16667,5.5 2.5,5.5C 4.21914,4.97789 5.55247,3.97789 6.5,2.5 Z"/></g>
<g><path style="opacity:0.925" fill="#a965d5" d="M 2.5,5.5 C 5.16667,5.5 7.83333,5.5 10.5,5.5C 10.5,6.16667 10.5,6.83333 10.5,7.5C 7.83333,7.5 5.16667,7.5 2.5,7.5C 2.5,6.83333 2.5,6.16667 2.5,5.5 Z"/></g>
<g><path style="opacity:0.925" fill="#9b69d4" d="M 2.5,7.5 C 5.16667,7.5 7.83333,7.5 10.5,7.5C 9.5,8.16667 8.5,8.83333 7.5,9.5C 4.83333,9.5 2.16667,9.5 -0.5,9.5C -0.5,9.16667 -0.5,8.83333 -0.5,8.5C 0.791047,8.73731 1.79105,8.40397 2.5,7.5 Z"/></g>
<g><path style="opacity:0.925" fill="#8c6dd2" d="M -0.5,9.5 C 2.16667,9.5 4.83333,9.5 7.5,9.5C 7.5,10.1667 7.5,10.8333 7.5,11.5C 4.83333,11.5 2.16667,11.5 -0.5,11.5C -0.5,10.8333 -0.5,10.1667 -0.5,9.5 Z"/></g>
<g><path style="opacity:0.925" fill="#7c71d0" d="M -0.5,11.5 C 2.16667,11.5 4.83333,11.5 7.5,11.5C 7.5,12.1667 7.5,12.8333 7.5,13.5C 4.83333,13.5 2.16667,13.5 -0.5,13.5C -0.5,12.8333 -0.5,12.1667 -0.5,11.5 Z"/></g>
<g><path style="opacity:0.917" fill="#7473d0" d="M 25.5,12.5 C 25.5,13.1667 25.5,13.8333 25.5,14.5C 21.5,14.5 17.5,14.5 13.5,14.5C 17.0293,12.5772 21.0293,11.9106 25.5,12.5 Z"/></g>
<g><path style="opacity:0.925" fill="#6c75cf" d="M -0.5,13.5 C 2.16667,13.5 4.83333,13.5 7.5,13.5C 7.5,14.1667 7.5,14.8333 7.5,15.5C 4.83333,15.5 2.16667,15.5 -0.5,15.5C -0.5,14.8333 -0.5,14.1667 -0.5,13.5 Z"/></g>
<g><path style="opacity:0.917" fill="#6478ce" d="M 13.5,14.5 C 17.5,14.5 21.5,14.5 25.5,14.5C 25.5,15.1667 25.5,15.8333 25.5,16.5C 21.5,16.5 17.5,16.5 13.5,16.5C 13.5,15.8333 13.5,15.1667 13.5,14.5 Z"/></g>
<g><path style="opacity:0.925" fill="#5b7acd" d="M -0.5,15.5 C 2.16667,15.5 4.83333,15.5 7.5,15.5C 7.5,16.1667 7.5,16.8333 7.5,17.5C 4.83333,17.5 2.16667,17.5 -0.5,17.5C -0.5,16.8333 -0.5,16.1667 -0.5,15.5 Z"/></g>
<g><path style="opacity:0.917" fill="#547ccc" d="M 13.5,16.5 C 17.5,16.5 21.5,16.5 25.5,16.5C 25.5,17.1667 25.5,17.8333 25.5,18.5C 22.8333,18.5 20.1667,18.5 17.5,18.5C 16.1667,17.8333 14.8333,17.1667 13.5,16.5 Z"/></g>
<g><path style="opacity:0.925" fill="#4b7ecb" d="M -0.5,17.5 C 2.16667,17.5 4.83333,17.5 7.5,17.5C 7.5,18.1667 7.5,18.8333 7.5,19.5C 4.83333,19.5 2.16667,19.5 -0.5,19.5C -0.5,18.8333 -0.5,18.1667 -0.5,17.5 Z"/></g>
<g><path style="opacity:0.917" fill="#4380cb" d="M 17.5,18.5 C 20.1667,18.5 22.8333,18.5 25.5,18.5C 25.5,19.1667 25.5,19.8333 25.5,20.5C 22.8333,20.5 20.1667,20.5 17.5,20.5C 17.5,19.8333 17.5,19.1667 17.5,18.5 Z"/></g>
<g><path style="opacity:0.925" fill="#3c82ca" d="M -0.5,19.5 C 2.16667,19.5 4.83333,19.5 7.5,19.5C 7.5,20.1667 7.5,20.8333 7.5,21.5C 5.83333,21.5 4.16667,21.5 2.5,21.5C 1.5,21.5 0.5,21.5 -0.5,21.5C -0.5,20.8333 -0.5,20.1667 -0.5,19.5 Z"/></g>
<g><path style="opacity:0.917" fill="#3484c9" d="M 17.5,20.5 C 20.1667,20.5 22.8333,20.5 25.5,20.5C 25.5,21.1667 25.5,21.8333 25.5,22.5C 22.8333,22.5 20.1667,22.5 17.5,22.5C 17.5,21.8333 17.5,21.1667 17.5,20.5 Z"/></g>
<g><path style="opacity:0.925" fill="#2d86c8" d="M 2.5,21.5 C 4.16667,21.5 5.83333,21.5 7.5,21.5C 9.17876,21.2852 10.1788,21.9519 10.5,23.5C 7.83333,23.5 5.16667,23.5 2.5,23.5C 2.5,22.8333 2.5,22.1667 2.5,21.5 Z"/></g>
<g><path style="opacity:0.917" fill="#2488c7" d="M 17.5,22.5 C 20.1667,22.5 22.8333,22.5 25.5,22.5C 25.5,23.5 25.5,24.5 25.5,25.5C 22.8333,25.5 20.1667,25.5 17.5,25.5C 17.5,24.5 17.5,23.5 17.5,22.5 Z"/></g>
<g><path style="opacity:0.925" fill="#2089c7" d="M 2.5,23.5 C 5.16667,23.5 7.83333,23.5 10.5,23.5C 10.5,24.1667 10.5,24.8333 10.5,25.5C 7.83333,25.5 5.16667,25.5 2.5,25.5C 2.5,24.8333 2.5,24.1667 2.5,23.5 Z"/></g>
<g><path style="opacity:0.704" fill="#158cc6" d="M 2.5,25.5 C 5.16667,25.5 7.83333,25.5 10.5,25.5C 12.8333,25.5 15.1667,25.5 17.5,25.5C 20.1667,25.5 22.8333,25.5 25.5,25.5C 25.5,26.1667 25.5,26.8333 25.5,27.5C 19.1667,27.5 12.8333,27.5 6.5,27.5C 5.16667,26.8333 3.83333,26.1667 2.5,25.5 Z"/></g>
<g><path style="opacity:0.965" fill="#0890c4" d="M 6.5,27.5 C 12.8333,27.5 19.1667,27.5 25.5,27.5C 25.5,28.5 25.5,29.5 25.5,30.5C 19.1667,30.5 12.8333,30.5 6.5,30.5C 6.5,29.5 6.5,28.5 6.5,27.5 Z"/></g>
</svg>
